<?xml version="1.0" standalone="no"?>
<!DOCTYPE svg PUBLIC "-//W3C//DTD SVG 20010904//EN"
 "http://www.w3.org/TR/2001/REC-SVG-20010904/DTD/svg10.dtd">
<svg version="1.0" xmlns="http://www.w3.org/2000/svg"
 width="500.000000pt" height="500.000000pt" viewBox="0 0 500.000000 500.000000"
 preserveAspectRatio="xMidYMid meet">
<metadata>
Created by potrace 1.14, written by Peter Selinger 2001-2017
</metadata>
<g transform="translate(0.000000,500.000000) scale(0.100000,-0.100000)"
fill="#000000" stroke="none">
<path d="M500 2500 l0 -2000 2000 0 2000 0 0 2000 0 2000 -2000 0 -2000 0 0
-2000z m3870 1855 c3 -129 -1 -3719 -4 -3722 -3 -3 -3158 -6 -3681 -3 l-60 0
1 1863 c1 1024 2 1867 3 1872 1 7 631 10 1871 10 1864 0 1870 0 1870 -20z"/>
<path d="M3165 3238 c-151 -20 -296 -85 -402 -182 -138 -127 -214 -292 -239
-526 -20 -178 13 -414 75 -545 98 -207 298 -340 556 -370 109 -13 295 -4 390
19 213 50 229 50 257 14 32 -43 33 -39 43 280 6 206 5 212 -13 212 -15 0 -31
-23 -65 -93 -91 -186 -199 -317 -304 -367 -36 -18 -65 -24 -118 -24 -87 1
-147 27 -207 92 -58 63 -118 203 -134 312 -15 104 -18 169 -18 365 -1 127 3
263 7 303 22 227 97 384 211 445 63 34 193 31 262 -4 28 -15 68 -43 87 -62 57
-54 138 -174 191 -280 36 -73 53 -97 68 -97 19 0 19 5 12 208 -4 114 -7 222
-8 241 -1 41 -16 49 -41 21 -24 -26 -55 -25 -173 4 -53 13 -119 27 -147 32
-70 10 -218 11 -290 2z"/>
<path d="M1203 3222 l-153 -3 0 -24 c0 -24 2 -25 68 -25 l69 0 0 -745 0 -745
-69 0 c-66 0 -68 -1 -68 -25 l0 -25 625 0 c344 0 625 3 625 8 3 42 10 217 14
338 l6 151 -23 -1 c-17 -1 -26 -13 -43 -58 -46 -123 -135 -236 -240 -304 -79
-51 -164 -75 -281 -82 l-103 -5 0 367 0 367 58 -2 c143 -6 221 -73 274 -239
22 -69 42 -95 57 -72 3 5 6 158 6 338 -1 298 -2 329 -17 332 -12 2 -20 -8 -28
-40 -30 -111 -105 -209 -186 -243 -20 -8 -65 -15 -100 -15 l-64 0 0 351 0 351
108 -5 c59 -3 114 -7 122 -10 147 -39 220 -107 314 -296 35 -69 51 -91 64 -89
19 4 19 -4 8 244 -8 178 -9 191 -18 200 -7 6 -758 11 -1025 6z"/>
</g>
</svg>
